:SAMPLES-PER-SECOND 30
:FULLY-SPECIFIED
:DEGREES
1213
root  63.3958 37.7999 11.9784 -172.861 1.39168 178.298
RightUpLeg  -28.2645 -5.63031 -9.49969
RightLeg  15.1671 11.1146 2.91124
RightFoot  6.40913 -1.14421 7.61178
RightToes  1.33877e-009 0 -3.6325e-017
Spine  34.3168 -1.7716 5.10912
Spine1  -4.76091 1.38184 -9.68558
HEad  -55.0166 31.8021 -48.7664
LeftShoulder1  0.58647 -3.61629 0.23535
LeftArm  -70.5056 -68.8678 7.83355
LeftForeArm  -17.968 -25.0132 -6.35299
LeftHand  -0.0877599 2.54793 3.17817
RightShoulder  -0.148071 5.12695 -11.679
RightArm  -54.0882 52.4267 -0.564161
RightForeArm  -40.792 13.1235 -1.75331
RightHand  0.428057 3.99251 4.99047
LeftUpLeg  -30.3869 8.51233 -3.0028
LeftLeg  16.2257 -4.88417 -2.1932
LeftFoot  9.11754 -1.1594 6.11054
LeftToes  -1.45701e-009 4.75788e-011 -4.21586e-011
1214
root  63.2406 37.7987 12.0496 -173.987 2.53415 178.651
RightUpLeg  -26.5995 -5.20744 -9.31099
RightLeg  14.009 11.4924 2.67974
RightFoot  3.81397 -1.31713 10.1442
RightToes  1.33877e-009 0 -3.6325e-017
Spine  33.1521 -1.32821 4.0712
Spine1  -3.98175 1.55707 -8.88442
HEad  -51.1623 38.8251 -48.0337
LeftShoulder1  0.584155 -4.15421 0.922868
LeftArm  -59.6708 -64.2776 -4.94714
LeftForeArm  -16.396 -31.1709 -7.68156
LeftHand  -0.0279808 1.93122 0.578278
RightShoulder  -0.113236 5.02514 -11.2264
RightArm  -59.2402 49.6418 6.47993
RightForeArm  -30.9651 20.1686 2.91609
RightHand  0.554585 5.71138 5.46965
LeftUpLeg  -29.4007 9.0649 -2.46021
LeftLeg  16.7217 -4.16442 -2.18118
LeftFoot  8.66746 -1.16094 6.27352
LeftToes  -1.45701e-009 4.75788e-011 -4.21586e-011
1215
root  63.1326 37.8068 12.1333 -175.068 3.42854 178.894
RightUpLeg  -25.4094 -4.85335 -9.31671
RightLeg  14.7158 10.5994 2.74318
RightFoot  -0.414365 -1.17131 12.0807
RightToes  1.33877e-009 0 -3.6325e-017
Spine  31.8344 -0.99908 3.04693
Spine1  -3.2026 1.57012 -8.09982
HEad  -51.3097 41.0206 -48.6826
LeftShoulder1  0.590078 -4.9283 1.65061
LeftArm  -52.4951 -58.6229 -14.7852
LeftForeArm  -16.2304 -37.4743 -9.49813
LeftHand  -0.0484688 2.22454 1.36681
RightShoulder  0.0187687 4.81748 -9.46022
RightArm  -58.4525 47.3053 12.4635
RightForeArm  -23.8446 27.2037 7.27866
RightHand  0.516851 6.39322 4.74424
LeftUpLeg  -28.2312 8.55227 -1.68861
LeftLeg  16.7908 -2.78521 -1.85409
LeftFoot  8.30467 -1.06189 5.83466
LeftToes  -1.45701e-009 4.75788e-011 -4.21586e-011
1216
root  63.049 37.8384 12.2094 -176.152 4.20818 178.991
RightUpLeg  -24.7603 -4.88667 -9.26091
RightLeg  18.0252 8.8092 2.99832
RightFoot  -4.14618 -0.74189 11.3067
RightToes  1.33877e-009 0 -3.6325e-017
Spine  30.1456 -0.352798 1.8947
Spine1  -1.90501 1.69975 -6.64534
HEad  -51.0219 42.9597 -49.118
LeftShoulder1  0.612274 -5.16307 1.52152
LeftArm  -47.3984 -54.0056 -22.6362
LeftForeArm  -14.9219 -43.1462 -11.3907
LeftHand  -0.0546674 2.06732 1.54946
RightShoulder  0.0954467 4.13899 -8.18405
RightArm  -50.8459 44.6512 18.2423
RightForeArm  -20.6856 35.3509 9.06492
RightHand  0.387801 6.96874 3.26376
LeftUpLeg  -26.8667 7.67005 -1.0968
LeftLeg  16.5291 -1.27258 -1.25543
LeftFoot  7.85915 -0.882414 4.93264
LeftToes  -1.45701e-009 4.75788e-011 -4.21586e-011
1217
root  63.0077 37.8553 12.2783 -177.601 4.86244 178.742
RightUpLeg  -23.6522 -4.96569 -9.25571
RightLeg  22.7707 6.18386 2.62138
RightFoot  -7.82575 -0.370615 10.2378
RightToes  1.33877e-009 0 -3.6325e-017
Spine  28.9097 -0.525511 1.65528
Spine1  -0.983474 1.55114 -7.45296
HEad  -51.2426 44.8923 -48.7172
LeftShoulder1  0.710469 -4.18298 -0.815091
LeftArm  -42.201 -51.1324 -26.4597
LeftForeArm  -13.5894 -47.9792 -13.379
LeftHand  -0.0786207 1.37672 2.08748
RightShoulder  0.337336 3.13919 -3.93738
RightArm  -43.0835 43.6685 22.3954
RightForeArm  -18.2975 42.4462 11.3304
RightHand  0.155881 6.77481 1.14979
LeftUpLeg  -25.0696 6.67806 -0.826129
LeftLeg  16.2295 0.676228 -0.454252
LeftFoot  6.97116 -0.620149 3.57735
LeftToes  -1.45701e-009 4.75788e-011 -4.21586e-011
1218
root  63.0741 37.8688 12.3846 -178.903 5.79758 178.596
RightUpLeg  -22.3971 -3.97912 -8.82658
RightLeg  27.5834 4.5313 2.36569
RightFoot  -10.2069 -0.154029 8.72639
RightToes  1.33877e-009 0 -3.6325e-017
Spine  27.6649 -0.46407 1.47108
Spine1  -0.284715 1.71594 -8.47429
HEad  -51.5446 46.466 -48.0527
LeftShoulder1  0.939001 -4.6047 -3.59243
LeftArm  -37.7607 -46.3249 -28.2782
LeftForeArm  -12.1426 -53.217 -16.0542
LeftHand  -0.113862 1.16682 3.00257
RightShoulder  0.462285 2.54125 -0.766079
RightArm  -35.4161 41.2957 27.1821
RightForeArm  -21.0787 48.6982 14.1626
RightHand  -0.0465977 7.1573 -0.802438
LeftUpLeg  -23.6296 7.14645 -0.421819
LeftLeg  16.3511 1.44187 -0.194573
LeftFoot  5.19868 -0.207662 1.17755
LeftToes  -1.45701e-009 4.75788e-011 -4.21586e-011
